<svg width="21" height="23" viewBox="0 0 21 23" fill="none" xmlns="http://www.w3.org/2000/svg">
<path d="M2.56407 22.497C1.67339 22.497 1.34951 22.404 1.02263 22.2301C0.695747 22.0562 0.44084 21.8013 0.266903 21.4744C0.0929662 21.1475 0 20.8266 0 19.9329V9.49673L10.4992 0.5L20.9984 9.49973V19.9359C20.9984 20.8266 20.9054 21.1505 20.7315 21.4774C20.5575 21.8043 20.3026 22.0592 19.9757 22.2331C19.6489 22.407 19.328 22.5 18.4343 22.5L2.56407 22.497Z" fill="url(#paint0_linear_277_3176)"/>
<path opacity="0.6" d="M7.84019 9C6.39021 8.99976 5 10.3915 5 12.3799C5 14.6182 6.99268 15.455 8.32888 16.3498C9.62509 17.2177 10.5416 18.4042 10.6865 18.9101C10.8103 18.4151 11.8437 17.1936 13.044 16.3247C14.3559 15.3747 16.373 14.5933 16.373 12.355C16.373 10.4212 14.983 9.04593 13.5392 9.04593C12.4359 9.04593 11.4063 9.24621 10.6863 10.6788C9.8524 9.25523 8.92561 9.00015 7.84019 9" fill="url(#paint1_linear_277_3176)"/>
<path opacity="0.8" d="M5 12.3799C5 14.6182 6.99268 15.455 8.32888 16.3498C9.62509 17.2177 10.5416 18.4042 10.6865 18.9101C10.8103 18.4151 11.8437 17.1936 13.044 16.3247L10.6863 10.6788C9.8524 9.25523 8.92561 9.00015 7.84019 9C6.39021 8.99976 5 10.3915 5 12.3799Z" fill="url(#paint2_linear_277_3176)"/>
<defs>
<linearGradient id="paint0_linear_277_3176" x1="-3.65694" y1="7.91569" x2="11.4217" y2="29.2641" gradientUnits="userSpaceOnUse">
<stop stop-color="#568EFF"/>
<stop offset="1" stop-color="#0052D8"/>
</linearGradient>
<linearGradient id="paint1_linear_277_3176" x1="3.29951" y1="13.3589" x2="8.29308" y2="22.201" gradientUnits="userSpaceOnUse">
<stop stop-color="white"/>
<stop offset="1" stop-color="white" stop-opacity="0.8"/>
</linearGradient>
<linearGradient id="paint2_linear_277_3176" x1="3.79725" y1="13.3589" x2="9.48373" y2="20.4807" gradientUnits="userSpaceOnUse">
<stop stop-color="white"/>
<stop offset="1" stop-color="white" stop-opacity="0.8"/>
</linearGradient>
</defs>
</svg>
