<?xml version="1.0" standalone="no"?><!DOCTYPE svg PUBLIC "-//W3C//DTD SVG 1.1//EN" "http://www.w3.org/Graphics/SVG/1.1/DTD/svg11.dtd"><svg t="1756266139420" class="icon" viewBox="0 0 1024 1024" version="1.1" xmlns="http://www.w3.org/2000/svg" p-id="5011" xmlns:xlink="http://www.w3.org/1999/xlink" width="64" height="64"><path d="M448 544H96c-19.2 0-32 12.8-32 32v352c0 19.2 12.8 32 32 32h352c19.2 0 32-12.8 32-32V576c0-19.2-12.8-32-32-32z m0-480H96c-19.2 0-32 12.8-32 32v352c0 19.2 12.8 32 32 32h352c19.2 0 32-12.8 32-32V96c0-19.2-12.8-32-32-32z m480 0H576c-19.2 0-32 12.8-32 32v352c0 19.2 12.8 32 32 32h352c19.2 0 32-12.8 32-32V96c0-19.2-12.8-32-32-32z m0 480H576c-19.2 0-32 12.8-32 32v352c0 19.2 12.8 32 32 32h352c19.2 0 32-12.8 32-32V576c0-19.2-12.8-32-32-32z" fill="#b3bccc" p-id="5012"></path></svg>