<svg width="20" height="22" viewBox="0 0 20 22" fill="none" xmlns="http://www.w3.org/2000/svg">
<path fill-rule="evenodd" clip-rule="evenodd" d="M16.2526 0H10.0013C6.5488 0 3.75 2.73644 3.75 6.11202C3.75 9.48759 6.5488 12.224 10.0013 12.224C13.4538 12.224 16.2526 9.48759 16.2526 6.11202V0ZM20 17.7223C20 15.3613 18.0424 13.4473 15.6276 13.4473H4.375C3.21491 13.4466 2.10211 13.8967 1.28156 14.6985C0.461018 15.5003 0 16.588 0 17.7223V18.3334C0 20.3583 1.67893 21.9998 3.75 21.9998H16.25C18.3211 21.9998 20 20.3583 20 18.3334V17.7223Z" fill="#B3BCCC"/>
</svg>
